<?xml version="1.0" encoding="UTF-8"?>
<svg width="209px" height="209px" viewBox="0 0 209 209" version="1.1" xmlns="http://www.w3.org/2000/svg" xmlns:xlink="http://www.w3.org/1999/xlink">
    <!-- Generator: Sketch 53.2 (72643) - https://sketchapp.com -->
    <title>hannah_martin_logo-inner</title>
    <desc>Created with Sketch.</desc>
    <g id="hannah_martin_logo-inner" stroke="none" stroke-width="1" fill="none" fill-rule="evenodd">
        <path d="M154.96,128.0485 L154.96,76.478 C154.965,72.685 158.12,72.094 158.12,72.094 L158.12,71.277 L147.639,71.277 L127.022,120.8085 L103.338,71.277 L91.6532,71.277 L91.6532,72.094 C92.6262,72.208 95.5412,72.824 95.5692,76.593 L95.5692,99.263 L60.2552,99.263 L60.2552,76.662 C60.2552,72.841 63.1882,72.208 64.1662,72.094 L64.1662,71.277 L48.9322,71.277 L48.9322,72.094 C49.9052,72.208 52.8192,72.824 52.8472,76.593 L52.8472,127.9835 C52.8472,131.8015 49.9142,132.4395 48.9322,132.5475 L48.9322,133.3605 L64.1662,133.3605 L64.1662,132.5475 C63.1882,132.4395 60.2552,131.8345 60.2552,128.0485 L60.2552,103.509 L95.5692,103.509 L95.5692,127.9835 C95.5692,131.8015 92.6312,132.4395 91.6532,132.5475 L91.6532,133.3605 L106.48,133.3605 L106.48,132.5475 C105.507,132.4395 102.578,131.8295 102.578,128.0485 L102.578,86.564 L124.849,133.2365 L125.524,133.2365 L147.652,80.36 L147.652,127.9835 C147.652,131.8015 144.725,132.4395 143.737,132.5475 L143.737,133.3605 L158.876,133.3605 L158.876,132.5475 C157.889,132.4395 154.988,131.8155 154.96,128.0485" id="hmtext" fill="#231F20"></path>
        <rect id="Rectangle" stroke="#979797" x="0.5" y="0.5" width="208" height="208"></rect>
    </g>
</svg>