<?xml version="1.0" encoding="UTF-8"?>
<svg width="209px" height="209px" viewBox="0 0 209 209" version="1.1" xmlns="http://www.w3.org/2000/svg" xmlns:xlink="http://www.w3.org/1999/xlink">
    <!-- Generator: Sketch 53.2 (72643) - https://sketchapp.com -->
    <title>hannah_martin_logo-outer</title>
    <desc>Created with Sketch.</desc>
    <g id="hannah_martin_logo-outer" stroke="none" stroke-width="1" fill="none" fill-rule="evenodd">
        <g id="circles" fill="#231F20">
            <path d="M112.516,4.547 C112.516,7.059 110.478,9.094 107.967,9.094 C105.459,9.094 103.421,7.059 103.421,4.547 C103.421,2.034 105.459,1.42108547e-14 107.967,1.42108547e-14 C110.478,1.42108547e-14 112.516,2.034 112.516,4.547" id="Fill-2"></path>
            <path d="M127.669,6.398 C127.669,8.91 125.631,10.945 123.12,10.945 C120.612,10.945 118.573,8.91 118.573,6.398 C118.573,3.885 120.612,1.851 123.12,1.851 C125.631,1.851 127.669,3.885 127.669,6.398" id="Fill-3"></path>
            <path d="M142.33,10.479 C142.33,12.991 140.292,15.026 137.781,15.026 C135.273,15.026 133.235,12.991 133.235,10.479 C133.235,7.966 135.273,5.932 137.781,5.932 C140.292,5.932 142.33,7.966 142.33,10.479" id="Fill-4"></path>
            <path d="M142.33,10.479 C142.33,12.991 140.292,15.026 137.781,15.026 C135.273,15.026 133.235,12.991 133.235,10.479 C133.235,7.966 135.273,5.932 137.781,5.932 C140.292,5.932 142.33,7.966 142.33,10.479" id="Fill-5"></path>
            <path d="M156.274,16.752 C156.274,19.264 154.235,21.299 151.725,21.299 C149.216,21.299 147.179,19.264 147.179,16.752 C147.179,14.239 149.216,12.205 151.725,12.205 C154.235,12.205 156.274,14.239 156.274,16.752" id="Fill-6"></path>
            <path d="M169.007,25.065 C169.007,27.577 166.969,29.612 164.459,29.612 C161.95,29.612 159.912,27.577 159.912,25.065 C159.912,22.552 161.95,20.518 164.459,20.518 C166.969,20.518 169.007,22.552 169.007,25.065" id="Fill-7"></path>
            <path d="M180.343,35.267 C180.343,37.779 178.305,39.814 175.795,39.814 C173.286,39.814 171.248,37.779 171.248,35.267 C171.248,32.754 173.286,30.72 175.795,30.72 C178.305,30.72 180.343,32.754 180.343,35.267" id="Fill-8"></path>
            <path d="M190.017,47.057 C190.017,49.569 187.979,51.604 185.468,51.604 C182.96,51.604 180.922,49.569 180.922,47.057 C180.922,44.544 182.96,42.51 185.468,42.51 C187.979,42.51 190.017,44.544 190.017,47.057" id="Fill-9"></path>
            <path d="M197.763,60.169 C197.763,62.681 195.725,64.716 193.214,64.716 C190.706,64.716 188.668,62.681 188.668,60.169 C188.668,57.656 190.706,55.622 193.214,55.622 C195.725,55.622 197.763,57.656 197.763,60.169" id="Fill-10"></path>
            <path d="M203.431,74.301 C203.431,76.813 201.393,78.848 198.882,78.848 C196.374,78.848 194.336,76.813 194.336,74.301 C194.336,71.788 196.374,69.753 198.882,69.753 C201.393,69.753 203.431,71.788 203.431,74.301" id="Fill-11"></path>
            <path d="M206.831,89.189 C206.831,91.701 204.794,93.736 202.283,93.736 C199.775,93.736 197.736,91.701 197.736,89.189 C197.736,86.676 199.775,84.642 202.283,84.642 C204.794,84.642 206.831,86.676 206.831,89.189" id="Fill-12"></path>
            <path d="M208.003,104.19 C208.003,106.702 205.965,108.7381 203.454,108.7381 C200.946,108.7381 198.908,106.702 198.908,104.19 C198.908,101.677 200.946,99.642 203.454,99.642 C205.965,99.642 208.003,101.677 208.003,104.19" id="Fill-13"></path>
            <path d="M206.794,119.3815 C206.794,121.8925 204.756,123.9275 202.245,123.9275 C199.737,123.9275 197.699,121.8925 197.699,119.3815 C197.699,116.8685 199.737,114.8325 202.245,114.8325 C204.756,114.8325 206.794,116.8685 206.794,119.3815" id="Fill-14"></path>
            <path d="M203.318,134.2311 C203.318,136.7421 201.28,138.7781 198.769,138.7781 C196.261,138.7781 194.223,136.7421 194.223,134.2311 C194.223,131.7181 196.261,129.6831 198.769,129.6831 C201.28,129.6831 203.318,131.7181 203.318,134.2311" id="Fill-15"></path>
            <path d="M197.612,148.402 C197.612,150.912 195.574,152.948 193.064,152.948 C190.555,152.948 188.517,150.912 188.517,148.402 C188.517,145.889 190.555,143.853 193.064,143.853 C195.574,143.853 197.612,145.889 197.612,148.402" id="Fill-16"></path>
            <path d="M189.79,161.5134 C189.79,164.0244 187.752,166.0604 185.241,166.0604 C182.733,166.0604 180.695,164.0244 180.695,161.5134 C180.695,159.0004 182.733,156.9644 185.241,156.9644 C187.752,156.9644 189.79,159.0004 189.79,161.5134" id="Fill-17"></path>
            <path d="M180.078,173.2653 C180.078,175.7763 178.041,177.8113 175.53,177.8113 C173.022,177.8113 170.983,175.7763 170.983,173.2653 C170.983,170.7523 173.022,168.7163 175.53,168.7163 C178.041,168.7163 180.078,170.7523 180.078,173.2653" id="Fill-18"></path>
            <path d="M168.742,183.3542 C168.742,185.8652 166.704,187.9002 164.194,187.9002 C161.685,187.9002 159.647,185.8652 159.647,183.3542 C159.647,180.8412 161.685,178.8052 164.194,178.8052 C166.704,178.8052 168.742,180.8412 168.742,183.3542" id="Fill-19"></path>
            <path d="M155.858,191.6296 C155.858,194.1406 153.82,196.1756 151.309,196.1756 C148.801,196.1756 146.763,194.1406 146.763,191.6296 C146.763,189.1166 148.801,187.0806 151.309,187.0806 C153.82,187.0806 155.858,189.1166 155.858,191.6296" id="Fill-20"></path>
            <path d="M142.028,197.8639 C142.028,200.3749 139.99,202.4109 137.479,202.4109 C134.971,202.4109 132.933,200.3749 132.933,197.8639 C132.933,195.3509 134.971,193.3159 137.479,193.3159 C139.99,193.3159 142.028,195.3509 142.028,197.8639" id="Fill-21"></path>
            <path d="M127.253,201.8317 C127.253,204.3427 125.215,206.3787 122.704,206.3787 C120.196,206.3787 118.158,204.3427 118.158,201.8317 C118.158,199.3187 120.196,197.2827 122.704,197.2827 C125.215,197.2827 127.253,199.3187 127.253,201.8317" id="Fill-22"></path>
            <path d="M112.138,203.57 C112.138,206.081 110.1,208.116 107.589,208.116 C105.081,208.116 103.043,206.081 103.043,203.57 C103.043,201.057 105.081,199.021 107.589,199.021 C110.1,199.021 112.138,201.057 112.138,203.57" id="Fill-23"></path>
            <path d="M96.8728,202.9655 C96.8728,205.4765 94.8338,207.5115 92.3238,207.5115 C89.8158,207.5115 87.7778,205.4765 87.7778,202.9655 C87.7778,200.4525 89.8158,198.4165 92.3238,198.4165 C94.8338,198.4165 96.8728,200.4525 96.8728,202.9655" id="Fill-24"></path>
            <path d="M81.9089,200.0182 C81.9089,202.5292 79.8709,204.5642 77.3609,204.5642 C74.8519,204.5642 72.8149,202.5292 72.8149,200.0182 C72.8149,197.5052 74.8519,195.4692 77.3609,195.4692 C79.8709,195.4692 81.9089,197.5052 81.9089,200.0182" id="Fill-25"></path>
            <path d="M67.55,194.9167 C67.55,197.4277 65.512,199.4637 63.002,199.4637 C60.493,199.4637 58.455,197.4277 58.455,194.9167 C58.455,192.4037 60.493,190.3677 63.002,190.3677 C65.512,190.3677 67.55,192.4037 67.55,194.9167" id="Fill-26"></path>
            <path d="M54.1736,187.5104 C54.1736,190.0214 52.1356,192.0574 49.6256,192.0574 C47.1166,192.0574 45.0786,190.0214 45.0786,187.5104 C45.0786,184.9974 47.1166,182.9624 49.6256,182.9624 C52.1356,182.9624 54.1736,184.9974 54.1736,187.5104" id="Fill-27"></path>
            <path d="M42.0818,178.2907 C42.0818,180.8017 40.0438,182.8377 37.5338,182.8377 C35.0248,182.8377 32.9868,180.8017 32.9868,178.2907 C32.9868,175.7777 35.0248,173.7417 37.5338,173.7417 C40.0438,173.7417 42.0818,175.7777 42.0818,178.2907" id="Fill-28"></path>
            <path d="M31.4641,167.3327 C31.4641,169.8437 29.4251,171.8787 26.9151,171.8787 C24.4071,171.8787 22.3691,169.8437 22.3691,167.3327 C22.3691,164.8197 24.4071,162.7837 26.9151,162.7837 C29.4251,162.7837 31.4641,164.8197 31.4641,167.3327" id="Fill-29"></path>
            <path d="M22.7351,154.7878 C22.7351,157.2978 20.6971,159.3338 18.1871,159.3338 C15.6781,159.3338 13.6401,157.2978 13.6401,154.7878 C13.6401,152.2748 15.6781,150.2388 18.1871,150.2388 C20.6971,150.2388 22.7351,152.2748 22.7351,154.7878" id="Fill-30"></path>
            <path d="M15.9714,141.1462 C15.9714,143.6572 13.9334,145.6932 11.4224,145.6932 C8.9144,145.6932 6.8764,143.6572 6.8764,141.1462 C6.8764,138.6332 8.9144,136.5982 11.4224,136.5982 C13.9334,136.5982 15.9714,138.6332 15.9714,141.1462" id="Fill-31"></path>
            <path d="M11.4372,126.5612 C11.4372,129.0722 9.3982,131.1072 6.8882,131.1072 C4.3802,131.1072 2.3422,129.0722 2.3422,126.5612 C2.3422,124.0482 4.3802,122.0122 6.8882,122.0122 C9.3982,122.0122 11.4372,124.0482 11.4372,126.5612" id="Fill-32"></path>
            <path d="M9.094,111.484 C9.094,113.995 7.056,116.03 4.546,116.03 C2.038,116.03 2.57571742e-14,113.995 2.57571742e-14,111.484 C2.57571742e-14,108.971 2.038,106.935 4.546,106.935 C7.056,106.935 9.094,108.971 9.094,111.484" id="Fill-33"></path>
            <path d="M9.1697,96.256 C9.1697,98.767 7.1317,100.803 4.6217,100.803 C2.1127,100.803 0.0747,98.767 0.0747,96.256 C0.0747,93.744 2.1127,91.708 4.6217,91.708 C7.1317,91.708 9.1697,93.744 9.1697,96.256" id="Fill-34"></path>
            <path d="M11.55,81.217 C11.55,83.728 9.512,85.763 7.002,85.763 C4.494,85.763 2.456,83.728 2.456,81.217 C2.456,78.704 4.494,76.668 7.002,76.668 C9.512,76.668 11.55,78.704 11.55,81.217" id="Fill-35"></path>
            <path d="M16.1604,66.669 C16.1604,69.179 14.1224,71.215 11.6114,71.215 C9.1034,71.215 7.0654,69.179 7.0654,66.669 C7.0654,64.156 9.1034,62.121 11.6114,62.121 C14.1224,62.121 16.1604,64.156 16.1604,66.669" id="Fill-36"></path>
            <path d="M22.9997,53.028 C22.9997,55.539 20.9617,57.574 18.4517,57.574 C15.9427,57.574 13.9047,55.539 13.9047,53.028 C13.9047,50.515 15.9427,48.48 18.4517,48.48 C20.9617,48.48 22.9997,50.515 22.9997,53.028" id="Fill-37"></path>
            <path d="M31.8039,40.521 C31.8039,43.031 29.7659,45.067 27.2559,45.067 C24.7469,45.067 22.7089,43.031 22.7089,40.521 C22.7089,38.008 24.7469,35.973 27.2559,35.973 C29.7659,35.973 31.8039,38.008 31.8039,40.521" id="Fill-38"></path>
            <path d="M42.4597,29.638 C42.4597,32.149 40.4217,34.184 37.9117,34.184 C35.4027,34.184 33.3647,32.149 33.3647,29.638 C33.3647,27.125 35.4027,25.09 37.9117,25.09 C40.4217,25.09 42.4597,27.125 42.4597,29.638" id="Fill-39"></path>
            <path d="M54.5139,20.418 C54.5139,22.928 52.4759,24.964 49.9649,24.964 C47.4569,24.964 45.4189,22.928 45.4189,20.418 C45.4189,17.905 47.4569,15.87 49.9649,15.87 C52.4759,15.87 54.5139,17.905 54.5139,20.418" id="Fill-40"></path>
            <path d="M67.928,13.125 C67.928,15.636 65.89,17.671 63.38,17.671 C60.871,17.671 58.833,15.636 58.833,13.125 C58.833,10.612 60.871,8.577 63.38,8.577 C65.89,8.577 67.928,10.612 67.928,13.125" id="Fill-41"></path>
            <path d="M82.2869,8.062 C82.2869,10.572 80.2489,12.608 77.7389,12.608 C75.2299,12.608 73.1919,10.572 73.1919,8.062 C73.1919,5.549 75.2299,3.513 77.7389,3.513 C80.2489,3.513 82.2869,5.549 82.2869,8.062" id="Fill-42"></path>
            <path d="M97.2502,5.19 C97.2502,7.701 95.2122,9.736 92.7022,9.736 C90.1942,9.736 88.1552,7.701 88.1552,5.19 C88.1552,2.677 90.1942,0.642 92.7022,0.642 C95.2122,0.642 97.2502,2.677 97.2502,5.19" id="Fill-43"></path>
        </g>
    </g>
</svg>