<?xml version="1.0" encoding="UTF-8"?>
<svg xmlns="http://www.w3.org/2000/svg" viewBox="0 0 662 47">
  <g fill="#000" fill-rule="evenodd">
    <path d="M115 46.1v.6h9.7v-.6c-.7 0-2.9-.5-2.9-3.3V9.6L155 46h.6V4.5c0-2.8 2.2-3.2 3-3.3V.6h-9.7v.6c.8 0 3 .5 3 3.3v30L120.8.5h-8v.7c1.8.3 4 3 4 3l.8.8.3.3v37.5c0 2.8-2.2 3.3-3 3.3M176.5 46.1v.6h9.7v-.6c-.7 0-2.9-.5-2.9-3.3V9.6L216.4 46h.6V4.5c0-2.8 2.2-3.2 2.9-3.3V.6h-9.6v.6c.7 0 3 .5 3 3.3v30L182.3.5h-8v.7c1.8.3 4 3 4 3l.8.8.2.3v37.5c0 2.8-2.1 3.3-2.9 3.3M8.3 42.8V23.4H36v19.3c0 2.9-2.2 3.4-3 3.4v.6h11.2v-.6c-.7 0-2.9-.5-2.9-3.3V4.6c0-2.9 2.2-3.3 3-3.4V.6H33v.6c.7 0 2.9.5 2.9 3.3v15.8H8.3V4.6c0-2.9 2.1-3.3 2.9-3.4V.6H0v.6c.7 0 2.9.5 2.9 3.3v38.2c0 2.9-2.2 3.4-2.9 3.4v.6h11.2v-.6c-.8 0-3-.5-3-3.3M295.8 42.8V23.4h27.7v19.3c0 2.9-2.2 3.4-3 3.4v.6h11.2v-.6c-.7 0-2.9-.5-2.9-3.3V4.6c0-2.9 2.2-3.3 3-3.4V.6h-11.2v.6c.7 0 2.9.5 2.9 3.3v15.8h-27.7V4.6c0-2.9 2.1-3.3 2.9-3.4V.6h-11.2v.6c.7 0 2.9.5 2.9 3.3v38.2c0 2.9-2.2 3.4-3 3.4v.6h11.3v-.6c-.8 0-3-.5-3-3.3M71.7 27.2l6.9-17.3L86 27.2H71.7zm-8.8 14l-.7 1.5c-1.4 2.9-3.5 3.4-4.2 3.4v.6h9v-.6c-1 0-2.7-1-1.6-3.3l5.2-12.7h16.6l5.4 12.7c1 2-.1 3.2-1 3.3v.6h11.2v-.6c-.7 0-2.8-.4-4.2-3.3L79.9 0l-17 41.3zM244.3 27.2l6.9-17.3 7.3 17.3h-14.2zm-8.8 14l-.7 1.5c-1.4 2.9-3.5 3.4-4.2 3.4v.6h9v-.6c-1 0-2.7-1-1.6-3.3l5.2-12.7h16.6l5.4 12.7c1 2-.1 3.2-1 3.3v.6h11.2v-.6c-.7 0-2.8-.4-4.2-3.3L252.5 0l-17 41.3zM412.6 42.7c0 2.9-2.1 3.4-2.9 3.4v.6H421v-.6c-.8 0-3-.5-3-3.3V4.4c0-2.8 2.4-3.2 2.4-3.2V.6h-7.8l-16.5 36.8L377.7.6H369v.6c2.9.3 4 2.5 4.2 3l.8 1.6v37c0 2.8-2.2 3.3-2.9 3.3v.6h8.8v-.6c-.7 0-2.9-.5-2.9-3.3v-31l1.5 3 16 31.8h.4l17.7-39.3v35.4zM618.7 46.1v.6h9.6v-.6c-.7 0-2.9-.5-2.9-3.3V9.6L658.5 46h.6V4.5c0-2.8 2.2-3.2 2.9-3.3V.6h-9.6v.6c.8 0 3 .5 3 3.3v30L624.4.5h-8v.7c1.8.3 4 3 4 3l.8.8.3.3v37.5c0 2.8-2.2 3.3-3 3.3M600 46.1c-.7 0-2.8-.5-2.8-3.3V4.6c0-2.9 2.1-3.3 2.9-3.4V.6h-10.9v.6c.7 0 2.9.5 3 3.3v38.2c0 2.9-2.3 3.4-3 3.4v.6h10.9v-.6zM552.1 42.7c0 2.9-2.1 3.4-2.8 3.4v.6h11.4v-.6c-.7 0-2.8-.5-2.9-3.2v-39h11.8c2 0 2.8 2.6 2.8 2.6l.7.1 1.8-6.5s-1.5.5-5.3.5h-28.5c-1.6 0-3.7-.5-3.7-.5L535 6.5l.6.4s2.4-3.1 6.3-3.1h10.2v39zM498.5 22.9V4c1.2-.5 4.8-.6 4.8-.6 5.5 0 8.6 4.4 8.6 9.8 0 5.8-4.5 10.5-13.4 9.7zm32.3 22c-5-.2-6.4-2.4-11.2-7.2L508 25c5.2-1 9.4-6 9.4-12 0-6.7-5.5-12.4-12.7-12.4h-13.8v.6s2.3.4 2.3 3.2v38.3c0 2.9-2.2 3.4-2.9 3.4v.6h11.2v-.6c-.7 0-2.9-.5-2.9-3.3V26l3.3.1 14 15.1c1.4 1.4 6.9 7.8 15.1 4l-.1-.4zM446.8 27.2l6.9-17.3 7.3 17.3h-14.2zm-8.8 14l-.7 1.5c-1.4 2.9-3.5 3.4-4.2 3.4v.6h9v-.6c-1 0-2.7-1-1.6-3.3l5.2-12.7h16.6l5.4 12.7c1 2-.1 3.2-1 3.3v.6h11.2v-.6c-.7 0-2.8-.4-4.2-3.3L455 0l-17 41.3z"/>
  </g>
</svg>