<svg version="1" xmlns="http://www.w3.org/2000/svg" width="933.333" height="933.333" viewBox="0 0 700.000000 700.000000"><path d="M303 5.2c-12 8.3-6.5 26.8 8 27 11.4.1 18.7-13.8 12-23.2-4.5-6.3-13.8-8-20-3.8zM355 4.8c-12.9 6.5-7.6 27.6 7 27.4 14.9-.2 20.3-19.5 7.7-27.2-4-2.5-10.1-2.5-14.7-.2zM407.5 9.4c-5.8 2.6-9.6 9.4-8.7 16 .5 4.3 6.8 11.5 10.2 11.7 1.1.1 3 .2 4.3.3 2.6.3 8.2-1.8 10.1-3.7 2.4-2.4 4.6-7.6 4.6-10.9 0-10-11.3-17.4-20.5-13.4zM255.8 15.4c-10.1 5.3-10.6 18.8-.8 25.3 9.1 6.2 22-1 22-12.4 0-11.1-11.5-18.1-21.2-12.9zM459.7 22.4c-2 .8-4.4 2-5.3 2.7-4.6 3.8-6.1 13.2-3 18.5 3.1 5.2 6.4 6.9 13.3 6.9 5.7 0 6.5-.3 9.7-3.4 4.4-4.3 5.8-9.9 3.9-15.5-1.6-4.8-2.8-6.3-6.4-8.1-4.1-2.2-8-2.5-12.2-1.1zM211.5 30c-10.2 2.2-14.9 11.8-10.3 21 7.1 14.1 28.3 8.3 27.4-7.5-.5-8.7-8.9-15.3-17.1-13.5zM504.5 44.5c-4 1.9-5.7 3.4-7.4 6.8-5.2 10 3.2 22.3 14.4 21.3C518.6 71.9 525 65 525 58c0-10.6-11.1-17.9-20.5-13.5zM160.9 56.1c-11.7 6.8-8.2 25.2 5.2 27.2 8.1 1.3 16.9-6.1 16.9-14.3 0-11.4-12.2-18.6-22.1-12.9zM545.9 72.3c-5.3 3.6-7.3 7.2-7.2 12.3.2 6 2.9 10.4 8.1 13.1 7.3 3.7 15.1 1.3 19.1-5.7 5.5-9.8-.8-21.1-12.1-21.6-3.5-.2-5.6.3-7.9 1.9zM120.9 88.1c-4.1 2-7.9 8.6-7.9 13.3 0 4 3.6 9.9 7.3 12.1 4.3 2.6 11.9 2.5 15.3-.1 4.9-3.6 6.7-6.9 6.7-12.3.1-11.2-11.4-18.2-21.4-13zM583.5 107.4c-4.9 3-7.3 7.6-7 13.5.7 12.2 15 17.9 24.3 9.7 2.6-2.3 5.2-7.7 5.2-10.9 0-4.1-3.9-10.3-7.9-12.5-5-2.8-9.6-2.8-14.6.2zM86.1 123.2c-10.4 5.1-10.3 20.5.2 25.7 4 2 10 2.1 13.6.2 2.9-1.6 6.9-7.1 7.5-10.6 1.2-6.2-3-13.5-9.1-16.1-4.5-1.9-7.1-1.8-12.2.8zM616.9 147c-4.2 2.2-6.3 4.6-7.6 8.5-3.7 11.4 7.9 22.8 19 18.6 5.5-2.1 9.7-8.1 9.7-13.8 0-4.1-3.6-10.7-7-12.6-4.2-2.5-10-2.8-14.1-.7zM58.1 165.3c-1.9.7-4.8 2.9-6.4 4.9-2.5 3.1-3 4.7-3 8.8.1 5.3 3.2 10.8 7.3 13 3.8 2 10.1 2 13.9 0 16.1-8.5 5.5-32.5-11.8-26.7zM645.6 189.5c-4.4 1.6-6.3 3.1-8.1 6.5-3.4 6.5-2.3 13.2 2.8 18 9.3 8.7 24.7 1.8 24.7-11.1 0-9.3-10.4-16.5-19.4-13.4zM33 211.3c-8 3.8-11.1 14.9-6.2 21.6 8.1 11 24.5 7.4 26.7-5.9 1.9-11-10.4-20.4-20.5-15.7zM664.6 235c-1.6.5-4.2 2.1-5.7 3.6-11.2 10.8-.5 28.4 14.7 24.3 4.1-1.2 9.1-6.9 10-11.4 1.9-10.3-8.9-19.6-19-16.5zM164.4 239.2c-.3.5-.4 1-.3 1.1.2.1 2.5 1.3 5.1 2.6 8.7 4.4 8.2-2.8 8.2 100.7 0 89.2-.1 91.1-2 94.5-2 3.4-9.1 8.2-10.6 7.3-.4-.3-.8.2-.8 1 0 .9.6 1.6 1.3 1.7 6.8.6 47.6.3 49-.4 2.3-1 1.5-2.3-2-3-4-.8-8.1-5.1-9.2-9.5-.5-2-.9-22.5-.9-45.8l.1-42.1 57.1-.1c31.4 0 58 .1 59.2.3 2 .4 2 .7 1.9 44.2 0 30.6-.4 44.4-1.2 45.8-1.9 3.4-5.6 6.3-9.2 7.2-3 .8-3.2 1.1-1.9 2.3 1.2 1.2 5.6 1.5 24.9 1.4 21.2 0 23.4-.2 23.7-1.7.2-1.1-.3-1.7-1.4-1.7-2.6 0-8.1-4-9.6-7-.9-1.9-1.3-18.7-1.4-73.8-.1-39.1.2-71.2.5-71.2.4 0 2.7 4.2 5.1 9.2 2.4 5.1 7.3 15.4 10.8 22.8 3.6 7.4 9.7 20.5 13.7 29 9.6 20.4 18.4 39.1 39.4 83.3 2.9 6.2 5.7 10.7 6.3 10.5.6-.2 2.9-4.7 5.1-9.9 2.1-5.2 6.1-14.6 8.7-20.9 2.7-6.3 9.9-23.7 16-38.5 6.2-14.9 11.9-28.6 12.7-30.5.8-1.9 1.9-4.4 2.4-5.5.4-1.1 4-9.9 8-19.5 3.9-9.6 7.9-19.3 8.9-21.5.9-2.2 4.1-9.9 7-17 2.9-7.2 5.6-13.3 5.9-13.7.3-.4.6 36.3.5 81.6 0 80.2-.1 82.4-2 85.7-2 3.4-9.1 8.2-10.6 7.3-.4-.3-.8.2-.8 1 0 .9.3 1.6.8 1.7.4.1 11.8.2 25.5.2 22.2.2 24.7 0 24.7-1.4 0-1-1.2-1.9-3.1-2.3-3.9-.7-8.4-5.5-9.3-9.7-.3-1.8-.6-43.7-.6-93.2 0-87.5.1-90 2-93.7 1.2-2.4 3.3-4.5 5.4-5.5 2.1-1 3.3-2.2 3-3-.4-1-4.5-1.3-17.8-1.3l-17.3.1-2.3 5.6c-1.2 3.1-2.8 6.9-3.5 8.6-.7 1.6-10.9 26.2-22.5 54.5-20.6 50-28.2 68.4-30 72.5-.4 1.1-2.9 7.2-5.5 13.5s-4.9 11.7-5.1 11.9c-.3.3-6.7-12.6-16.9-34.4-1.8-3.9-5.8-12.4-9-19s-11.8-24.8-19.2-40.5c-19.6-41.4-25.3-53.4-30.3-63.5l-4.5-9h-19c-11.8 0-19.1.4-19.3 1-.2.5.2 1.3 1 1.6 5.2 2.3 7.6 4.2 9.3 7.1 1.9 3.1 2 5.2 2.1 44l.1 40.8H202.2l.1-40.5c0-39.1.1-40.6 2.1-44.2 1.3-2.3 3.7-4.5 6.4-5.8 8-3.8 5.9-4.3-20.8-4.2-14.3 0-25.3.4-25.6.9zM18.6 259.1C12.9 260.7 8 267.5 8 273.7c0 4.1 4 10.3 8 12.4 10.1 5.4 22.6-2.9 21.5-14.3-.9-9-10.1-15.2-18.9-12.7zM674.5 286.5c-4.4 1.9-7.3 5-8.6 9.4-3 9.9 4.3 19.1 15.1 19.1 3.7 0 10.5-4.7 12.2-8.4 3-6.3.2-15.3-5.8-18.8-4-2.3-9.3-2.9-12.9-1.3zM10.5 310.5c-7.4 2.6-11.3 9-10 16.6 2.4 13.9 21.7 16.2 27.6 3.2 1.1-2.2 1.5-5.1 1.2-7.6-.4-4.2-4.2-10-7.1-11.2-4.4-1.9-8.2-2.2-11.7-1zM682.3 337c-8.6 1.9-13.5 10-11.2 18.5 1.8 6.3 7.5 10.5 14.5 10.5 4.3 0 7.1-1.4 10.6-5.3 9.1-10.1-.6-26.5-13.9-23.7zM7.3 363c-9 5.5-9.6 17.9-1 24.4 6.5 5 16.8 3 20.8-3.9 6.2-10.7-.7-22.5-12.9-22.5-2 0-5.1.9-6.9 2zM673.4 389c-5.4 2.2-9.3 10.5-7.9 16.9 2.8 12.9 21 15.2 27.3 3.4 5.1-9.5-2-21.4-12.8-21.2-2.5 0-5.4.4-6.6.9zM16.1 411.2c-7 3.5-9.9 12.8-6.1 19.8 7.2 13.5 28.4 7.7 27.5-7.6-.7-10.9-11.6-17.1-21.4-12.2zM664.6 437c-1.6.5-4.2 2.1-5.7 3.6-9.4 9-3 24.8 10.1 24.8 8.5 0 15.2-6.9 14.5-15-.8-9.9-9.7-16.2-18.9-13.4zM32.8 462.4c-5.3 2.7-7.9 6.2-8.3 11.3-.6 8.5 6.3 16.3 14.5 16.3 5.2 0 11.5-4.2 13.4-9.1 5.2-12.8-7.4-24.8-19.6-18.5zM647.5 485c-10.4 2.2-15.1 13.5-9.5 22.6 4 6.3 13.8 8.4 20.1 4.1 3.9-2.6 6.9-7.9 6.9-12.2 0-8.7-9.2-16.3-17.5-14.5zM55.5 507.2c-11.9 4.3-12.9 20.7-1.6 26.5 10 5.1 21.1-1.5 21.3-12.6.1-10-10.3-17.4-19.7-13.9zM616.4 529.4c-6.9 3.1-9.9 13.9-5.6 20.8 6 9.6 20.3 9 25.4-1.2 3.4-6.7 1.3-14.5-5.1-18.7-3.9-2.6-9.9-3-14.7-.9zM87.3 547c-5 1.1-8.3 3.8-10.3 8.4-4.3 9.7 1.7 19.5 12.4 20.4 4.5.3 5.6 0 9.3-2.7 7.1-5.1 8.2-14.5 2.6-21.2-3.8-4.5-8.5-6.1-14-4.9zM584.5 569.9c-13.9 6.3-8.8 27.5 6.5 27.4 8.4 0 14.5-6 14.4-14.1-.1-6.2-2.8-10.7-7.9-13.2-5.1-2.5-7.8-2.5-13-.1zM119.4 585.5c-13.5 5.8-10.9 25.8 3.8 28.1 5.4.9 12.3-2.7 14.8-7.7 2.5-4.8 2.5-9 .1-13.7-3.3-6.4-12-9.6-18.7-6.7zM549.5 600.8c-3.2.7-7.4 4.1-9.1 7.4-5.3 10.2 2.1 22 13.4 21.4 11.2-.5 17.6-11.8 12.1-21.6-3.2-5.6-10-8.6-16.4-7.2zM158.2 616c-12.6 7.7-7.4 27.2 7.2 27.2 15.8 0 20.5-20.4 6.4-27.8-3.8-2-9.7-1.7-13.6.6zM502.7 628.4c-4.6 1.7-6.4 3.2-8.3 6.9-3.3 6.3-1.2 14.5 4.9 19.1 3.9 2.9 12.6 2.8 16.4-.1 9.4-6.9 8.2-20.7-2.1-25.4-4.8-2.2-5.9-2.2-10.9-.5zM206.5 639.1c-4.1 1.3-5.9 2.8-8 6.8-3.8 7.5-1.1 16 6.3 19.8 12.6 6.3 25.3-5.9 19.8-19.1-2.7-6.4-11-9.8-18.1-7.5zM455.1 650.7c-4.8 2.5-7.3 6.3-7.8 12-.8 8.3 5.7 15.5 14 15.5 18.8 0 20.4-27.3 1.8-28.9-3.1-.3-5.7.2-8 1.4zM253.4 658.4c-8.7 3.9-10.9 15.6-4.3 23.1 2.7 3.1 4.1 3.7 10.5 4.9 3.1.6 9.8-2.8 12.2-6.2 4.5-6.2 2.8-16-3.5-20.6-3.3-2.4-10.9-3.1-14.9-1.2zM409.5 662.8c-9 2.1-14 14.9-8.7 22.1 3.5 4.7 7 6.6 12.5 6.6 18.3 0 19.9-26.4 1.7-28.8-1.9-.2-4.4-.2-5.5.1zM303.5 667.4c-12 7.2-7.8 25.8 6 26.9 7.9.7 14.7-4.6 16-12.3 1.4-8.3-6.1-17-14.6-17-1.9 0-5.2 1.1-7.4 2.4zM360 667.8c-10.7 3.3-15.2 11.5-11.1 20.6 4.5 10.2 18.6 11.7 25 2.7 4.6-6.4 3.2-15.8-3-20.3-2.9-2.2-8.6-3.7-10.9-3z"/></svg>